PathFileType	4	(X/Y/Z)	D:\TRACE\spotREDO_2-26-24\spot_Both_Motion_3_10-v60.trc
DataRate	CameraRate	NumFrames	NumMarkers	Units	OrigDataRate	OrigDataStartFrame	OrigNumFrames
100.00	100.00	      24	9	mm	100.00	5251	      7000
Frame#	Time	front left toe			Front right toe			aft left toe			aft right toe			Arm			FL body			FR body			AL Body			AR Body			
		X1	Y1	Z1	X2	Y2	Z2	X3	Y3	Z3	X4	Y4	Z4	X5	Y5	Z5	X6	Y6	Z6	X7	Y7	Z7	X8	Y8	Z8	X9	Y9	Z9	

5251	52.500	-214.33080	15.14428	-460.01865	218.08769	12.37725	-511.60388	-169.91251	18.21077	167.91328	209.53058	26.58378	140.50703	22.04650	708.09448	-766.32770	-83.49432	574.23621	-526.83319	71.77192	576.80249	-528.49878	-82.47508	566.16571	356.93164	64.99879	558.47009	358.38977	
5252	52.510	-214.22989	15.24925	-460.01892	218.09459	12.37853	-511.60300	-169.79774	18.24231	167.96375	209.68440	26.56944	140.60727	21.63634	708.19714	-766.38983	-82.54938	574.11743	-526.55414	72.97018	576.43408	-527.98486	-81.36755	566.21606	357.30820	65.51315	558.44843	358.77588	
5253	52.520	-214.13046	15.28778	-459.92862	218.08295	12.41562	-511.60394	-169.69592	18.28043	168.00159	209.87393	26.59192	140.70206	21.45804	708.07483	-766.30145	-81.56921	573.80487	-525.91870	73.89263	576.31427	-527.49603	-80.07845	566.16315	357.79068	67.05882	558.35010	359.37939	
5254	52.530	-214.10893	15.37561	-459.79785	218.08836	12.39372	-511.60147	-169.54324	18.44680	168.06030	210.02119	26.54263	140.79080	21.54284	707.93005	-766.27661	-80.71543	573.58783	-525.36371	74.80503	576.06238	-527.07776	-78.65405	566.20721	358.52539	68.47335	558.27472	359.65131	
5255	52.540	-214.08078	15.46250	-459.69327	218.04128	12.41989	-511.60016	-169.29669	18.50942	168.13379	210.24423	26.49352	140.88162	21.88685	707.60400	-766.34943	-79.92148	573.25989	-524.77930	75.57934	575.78741	-526.66339	-77.12413	566.25006	359.11838	70.10878	558.44391	360.22897	
5256	52.550	-214.07372	15.55056	-459.55438	218.08900	12.45536	-511.59866	-169.15613	18.57866	168.17654	210.66388	26.50233	140.98709	22.34246	707.36462	-766.43146	-79.23640	572.93762	-524.20142	76.34030	575.42578	-526.03711	-75.47561	566.42212	359.68146	71.65112	558.42480	360.82819	
5257	52.560	-214.05020	15.66879	-459.42227	218.08786	12.44740	-511.59433	-169.09074	18.68016	168.25494	210.77850	26.30429	140.96059	22.76946	707.24847	-766.31659	-78.48967	572.73358	-523.77838	77.33561	574.97681	-525.47723	-74.02103	566.27454	360.32300	73.09605	558.21600	361.24478	
5258	52.570	-213.94513	15.80519	-459.31015	218.09944	12.45889	-511.55554	-168.92383	18.76293	168.27174	210.93539	26.04218	141.01170	23.09475	707.21930	-766.31317	-77.27881	572.38043	-522.92212	78.04496	574.69440	-525.02905	-72.67181	566.23853	360.99805	74.73870	558.34320	361.87549	
5259	52.580	-213.81001	15.97903	-459.23761	218.17302	12.47530	-511.53607	-168.65761	18.69091	168.26280	211.15466	25.84220	141.07559	23.47198	707.21246	-766.37994	-76.20123	572.46045	-522.44867	79.39864	574.57288	-524.22632	-70.96496	566.26862	361.57910	76.07082	558.28033	362.51416	
5260	52.590	-213.55611	16.23596	-459.08008	218.20993	12.49794	-511.50928	-168.56543	18.77628	168.31020	211.26117	25.71725	141.33849	23.73296	707.26184	-766.50513	-74.99975	572.20227	-521.62006	80.63526	574.39691	-523.67706	-69.73799	566.29138	362.26236	77.54894	558.36548	363.29053	
5261	52.600	-213.46960	16.43362	-459.04599	218.42940	12.58083	-511.44504	-168.53629	18.79052	168.34190	211.35724	25.67213	141.25549	23.89620	707.33746	-766.59058	-73.91451	572.13965	-521.55292	81.95623	574.30206	-523.00970	-68.27151	566.10864	363.09195	78.73195	558.01959	363.93158	
5262	52.610	-213.27705	16.69592	-459.03241	218.55298	12.62378	-511.33240	-168.45355	18.76511	168.34842	211.57724	25.66114	141.41611	23.92494	707.44360	-766.52002	-72.01521	571.78516	-520.26648	83.64906	574.06158	-522.07843	-67.25179	565.99738	363.80853	80.07325	558.00226	364.78983	
5263	52.620	-213.11504	16.85984	-458.92520	218.68607	12.72668	-511.17163	-168.37384	18.81544	168.41321	211.67709	25.61753	141.59460	23.88674	707.53961	-766.41821	-70.18791	571.70032	-519.47614	85.41062	573.54468	-520.81561	-65.72197	565.73083	364.52362	81.45177	557.88086	365.41385	
5264	52.630	-212.96959	17.02187	-458.99359	218.96555	12.84184	-510.94086	-168.16342	18.79483	168.47470	211.69707	25.55081	141.62828	23.74069	707.62927	-766.32281	-68.65052	571.61426	-518.76221	86.80263	573.73724	-520.53857	-64.26611	565.64777	365.43469	82.94024	557.68469	366.45044	
5265	52.640	-212.93079	17.27778	-459.01651	219.05095	12.74729	-510.94540	-168.09212	18.96330	168.54813	211.75108	25.50864	141.69505	23.46830	707.79614	-766.21576	-66.97093	571.52533	-517.83063	88.63203	573.69623	-519.55487	-62.92548	565.53748	366.13052	84.31761	557.61725	367.31708	
5266	52.650	-212.85478	17.45133	-458.97684	219.26309	12.90538	-510.69379	-167.95145	19.03623	168.60316	211.76543	25.40050	141.72528	23.38514	707.90356	-766.05249	-64.99990	571.52246	-516.82996	90.25439	573.67725	-518.66077	-61.32522	565.39246	367.12378	86.07053	557.28528	368.10361	
5267	52.660	-212.83212	17.41617	-458.97821	219.28360	13.05746	-510.78278	-167.95351	19.01599	168.61942	211.87811	25.52366	141.81853	23.22199	707.97644	-765.96094	-62.92588	571.41870	-515.95398	92.31892	573.83032	-517.52155	-59.53004	565.10089	368.08176	87.56698	557.10156	369.19623	
5268	52.670	-213.10149	20.28074	-457.93155	219.44469	12.37432	-510.35690	-167.68613	19.26490	169.00063	211.82581	24.42043	142.14964	23.10406	708.04346	-765.85687	-61.54158	571.79999	-515.48956	93.89234	573.90320	-516.65436	-57.77489	564.81372	369.26123	89.66216	556.85071	370.44348	
5269	52.680	-213.89990	28.95546	-454.05066	221.12251	11.60785	-509.94150	-167.27785	19.82355	168.52126	212.89886	23.84676	142.40707	23.11873	708.27600	-765.70483	-58.94000	570.96033	-514.18549	96.51733	574.12390	-515.53918	-56.88984	564.21936	369.87430	90.62373	557.02234	371.20337	
5270	52.690	-209.17638	39.47194	-450.13861	221.71896	11.27283	-509.76761	-166.89067	19.66348	168.63373	213.04239	24.03464	142.48569	23.44137	708.49036	-765.46088	-56.69341	570.27075	-513.52765	98.63052	574.09229	-514.49426	-55.69217	564.00293	370.58719	91.15323	557.74554	372.17032	
5271	52.700	-211.27980	51.71710	-448.81839	221.50677	11.42616	-509.83459	-167.12732	19.70916	168.79698	212.69727	24.03261	142.57492	23.85813	708.47742	-765.48889	-54.64120	569.72345	-512.66003	100.47854	574.33600	-513.73853	-53.96623	563.72864	371.52094	93.30706	557.63812	373.01410	
5272	52.710	-212.71846	64.18542	-451.00488	221.98125	11.61155	-509.45612	-166.84413	19.90012	169.07843	213.27626	24.06407	142.71507	24.08616	708.62030	-765.70648	-53.17646	569.05371	-511.82709	101.90495	574.61133	-512.90186	-52.82423	563.37885	372.18414	94.80556	558.39301	373.87744	
5273	52.720	-214.48039	76.58965	-454.93124	221.82098	11.81464	-509.66043	-166.31781	19.94921	169.18153	213.76987	23.91677	142.82695	24.34241	708.77820	-765.27130	-52.23742	569.15717	-510.95007	103.09776	574.73413	-512.02435	-51.53921	563.09259	373.16940	95.48785	558.57324	374.78265	
5274	52.730	-213.26012	88.40397	-458.26639	221.74057	12.18248	-509.64716	-166.31084	20.32509	169.41798	213.40761	23.42369	142.57343	23.98912	708.66968	-764.85718	-51.12291	569.34106	-510.11862	103.86976	574.72144	-510.85739	-50.17654	562.81805	374.00586	97.04827	557.78094	375.32788	
